<?xml version="1.0" standalone="no"?>
<!DOCTYPE svg PUBLIC "-//W3C//DTD SVG 20010904//EN"
 "http://www.w3.org/TR/2001/REC-SVG-20010904/DTD/svg10.dtd">
<svg version="1.0" xmlns="http://www.w3.org/2000/svg"
 width="900.000000pt" height="900.000000pt" viewBox="0 0 900.000000 900.000000"
 preserveAspectRatio="xMidYMid meet">

<g transform="translate(0.000000,900.000000) scale(0.100000,-0.100000)"
fill="#000000" stroke="none">
<path d="M3550 7419 c-261 -17 -563 -62 -775 -115 -229 -57 -500 -155 -659
-237 -207 -107 -309 -305 -238 -462 137 -302 642 -495 1492 -570 620 -55 1282
-16 2131 125 410 68 520 101 626 186 108 88 111 229 5 301 -76 50 -268 58
-507 19 -853 -140 -1646 -215 -2150 -203 -302 7 -450 24 -743 83 -318 64 -397
91 -456 153 -41 43 -41 95 0 127 35 29 206 105 324 146 290 99 881 206 1345
243 268 21 467 27 1150 34 593 6 620 7 623 25 2 10 0 22 -5 27 -11 11 -675 74
-1148 109 -193 15 -851 21 -1015 9z"/>
<path d="M7639 6989 c-110 -11 -191 -34 -298 -85 -154 -72 -282 -179 -334
-279 -32 -61 -30 -149 5 -203 31 -45 94 -87 149 -97 61 -11 108 10 184 80 119
110 229 155 380 155 145 0 252 -41 353 -135 95 -88 134 -166 151 -303 24 -189
-44 -400 -202 -630 -207 -302 -762 -917 -1047 -1160 -161 -137 -336 -306 -356
-344 -20 -38 -18 -63 10 -95 21 -24 32 -28 73 -27 52 1 102 23 195 85 31 21
121 78 200 125 458 276 839 600 1123 954 335 417 456 704 442 1050 -14 353
-179 631 -471 795 -163 91 -369 133 -557 114z"/>
<path d="M6510 6789 c-66 -30 -135 -109 -185 -213 -77 -159 -112 -344 -135
-706 -37 -586 -119 -1022 -276 -1457 -56 -158 -173 -399 -251 -518 -307 -467
-736 -720 -1302 -765 -262 -21 -546 18 -760 106 -667 271 -1204 973 -1495
1954 -59 202 -105 395 -156 660 -23 118 -50 251 -60 295 -10 44 -23 106 -30
138 -10 51 -14 58 -33 55 -29 -4 -34 -33 -36 -208 -3 -444 76 -937 238 -1471
191 -633 408 -1039 736 -1378 666 -687 1602 -954 2382 -680 320 113 651 340
900 619 433 484 706 1129 837 1980 64 418 93 790 77 992 -26 316 -128 546
-268 605 -47 19 -131 16 -183 -8z"/>
<path d="M2055 3804 c-641 -77 -1162 -276 -1442 -552 -198 -194 -293 -397
-280 -601 6 -106 31 -175 97 -268 138 -197 456 -381 850 -493 228 -64 552
-122 1170 -209 792 -112 1747 -140 2510 -75 688 58 1277 176 1890 378 324 106
509 190 695 314 199 133 285 224 285 302 0 96 -104 114 -327 57 -219 -57 -964
-215 -1398 -297 -1114 -210 -1937 -286 -2837 -260 -615 18 -1060 65 -1693 180
-299 54 -396 76 -515 117 -448 153 -547 445 -251 744 183 184 417 299 846 414
278 74 469 129 530 152 59 22 82 56 61 88 -17 25 -43 27 -191 9z"/>
</g>
</svg>
