<svg width="213" height="318" viewBox="0 0 213 318" fill="none" xmlns="http://www.w3.org/2000/svg">
<path d="M1.28979 201.072C13.6252 238.577 40.6462 293.929 39.8238 293.929C39.1495 293.929 63.1328 314.316 100.481 316.32C120.065 317.37 145.333 317.588 168.317 298.058L208.935 206.233M1.28979 201.072C-0.354922 189.511 5.40159 176.299 8.48543 171.138M1.28979 201.072C4.03076 203.137 11.363 206.027 18.7642 201.072C28.0158 194.879 26.9878 206.233 30.0717 210.362M208.935 206.233C211.334 201.76 213.869 190.75 204.824 182.492C212.704 172.17 220.037 146.571 186.32 126.752M208.935 206.233C204.481 210.362 194.955 217.381 192.487 212.427C190.02 207.472 185.977 209.674 184.264 211.394C183.215 214.292 180.518 218.803 176.729 218.906M186.32 126.752C187.006 119.182 183.442 101.359 163.706 90.6238C164.734 84.0864 161.855 67.9148 142.119 55.528M186.32 126.752C167.305 152.306 137.905 150.274 133.818 150.274C129.732 150.274 123.602 145.162 109.298 149.251C94.9945 153.341 90.9078 154.364 66.3875 155.386C46.7712 156.204 33.3187 136.637 29.0444 126.752M142.119 55.528C143.489 48.3024 142.941 34.4706 129.783 36.9479M142.119 55.528C141.091 57.7291 137.185 62.6638 129.783 64.7944M129.783 36.9479C133.552 27.3137 150.137 9.07764 186.32 13.2066C188.376 15.271 193.311 18.1612 196.6 13.2066C200.712 7.01322 197.628 4.94876 194.544 1.85207C192.077 -0.625278 186.663 2.8843 184.265 4.94876C168.16 4.94875 132.867 10.5228 120.532 32.8189M129.783 36.9479C122.469 40.2511 120.568 35.5716 120.532 32.8189M120.532 32.8189C115.392 32.1308 104.29 31.9933 101.001 36.9479M101.001 36.9479C99.6302 31.0986 97.3001 18.7806 98.9449 16.3032C101.001 13.2066 81.4684 50.3668 60.9101 61.7213C55.7697 66.8825 55.3599 77.6176 61.9387 87.527M101.001 36.9479C99.3393 40.9182 97.4465 50.1451 103.168 55.2901M61.9387 87.527C48.5754 90.6238 23.2879 102.804 29.0444 126.752M61.9387 87.527C65.1245 94.1287 71.4959 103.242 83.756 111.422C89.6425 115.349 103.145 118.081 117.471 117.556C132.984 116.989 153.23 117.556 163.447 90.9733M29.0444 126.752C19.4502 133.977 1.90656 152.97 8.48543 171.138M8.48543 171.138C15.6808 181.46 36.4449 200.246 61.9381 192.814C66.7351 190.062 78.1796 187.034 85.5809 196.943C94.8324 209.33 127.727 203.137 131.839 199.008C135.95 194.879 142.118 191.782 155.481 195.911C168.845 200.04 198.654 190.75 203.795 182.492M30.0717 210.362C33.1555 214.491 43.435 205.201 44.4629 205.201C45.4909 205.201 53.7145 214.491 56.7983 217.588M30.0717 210.362L54.6398 285.004M56.7983 217.588C59.8822 220.685 65.0219 213.459 66.0498 213.459C67.0778 213.459 74.2734 220.685 75.3014 221.717C75.6841 222.101 76.4943 222.485 77.626 222.55M56.7983 217.588L69.965 285.004M80.691 63.3679C85.8911 60.419 94.4791 56.7108 103.168 55.2901M146.078 75.6369C134.336 71.5093 134.229 70.0479 129.783 64.7944M103.168 55.2901C111.55 53.9195 120.026 54.6778 125.645 60.3006C127.416 62.0726 128.723 63.5414 129.783 64.7944M77.626 222.55C79.5337 222.659 82.3548 221.86 85.5809 218.62C90.7206 213.459 92.7765 216.556 93.8045 218.62C94.6327 220.283 98.1302 224.627 102.146 223.553M77.626 222.55L88.1367 292.161M102.146 223.553C103.115 223.294 104.113 222.72 105.112 221.717C110.252 216.556 115.391 215.523 118.475 219.652C120.321 222.124 123.272 224.226 126.667 224.408M102.146 223.553L104.702 293.929M126.667 224.408C128.943 224.53 131.419 223.789 133.894 221.717C140.062 216.556 142.118 215.523 148.286 219.652C150.275 220.984 152.157 221.457 153.829 221.451M126.667 224.408L123.092 293.929M153.829 221.451C157.341 221.44 159.925 219.319 160.621 218.62C161.649 217.588 165.761 212.427 172.956 217.588C174.306 218.556 175.569 218.938 176.729 218.906M153.829 221.451L143.526 292.161M176.729 218.906L160.894 287.049M25.5203 161.521L33.6937 155.386M66.0498 165.61L75.3014 171.138M98.0596 185.036L109.298 178.902M122.58 165.61L131.839 173.79M146.078 161.521L158.339 158.453M198.184 160.498L192.054 172.767M160.621 117.556L169.577 126.752M139.948 129.825L126.667 133.915M107.255 129.825L96.0162 136.982M69.4525 126.752L78.6476 132.893M39.8238 117.556L52.084 115.511M81.7127 98.1303L90.9078 108.355M93.8045 68.48L104.19 76.6594M133.818 83.8163L122.58 88.9284" stroke="#121313" stroke-width="1.5"/>
</svg>
