<svg aria-hidden="true" style="position: absolute; width: 0; height: 0; overflow: hidden;" version="1.1" xmlns="http://www.w3.org/2000/svg" xmlns:xlink="http://www.w3.org/1999/xlink">
<defs>
<symbol id="icon-Facebook" viewBox="0 0 32 32">
<path fill="#fffefc" style="fill: var(--color1, #fffefc)" d="M31.673 16c0 8.656-7.017 15.673-15.673 15.673s-15.673-7.017-15.673-15.673c0-8.656 7.017-15.673 15.673-15.673s15.673 7.017 15.673 15.673z"></path>
<path fill="#121313" style="fill: var(--color2, #121313)" d="M14.136 20.137c-0.080-1.044-0.080-2.088-0.161-3.212 0-0.562-0.241-0.964-0.883-0.964-0.402 0-0.803 0.080-0.883-0.482-0.080-0.723-0.241-1.526 0-2.249 0-0.080 0.321-0.241 0.482-0.241 1.205 0.241 1.445-0.402 1.445-1.365 0-2.57 2.168-3.935 4.979-3.774 0.803 0.080 0.803 0.723 0.803 1.285-0.080 0.562 0.241 1.365-0.803 1.365-0.883-0.080-1.526 0.241-1.526 1.285 0 0.723 0.080 1.285 0.964 1.365 1.285 0.080 1.044 0.964 1.044 1.847 0.080 0.964-0.401 1.285-1.285 1.285s-1.044 0.482-1.044 1.285c0 1.767 0 3.453-0.080 5.22-0.080 1.124-0.321 1.205-1.847 1.124-1.044 0-1.205-0.482-1.124-1.365-0.161-0.723-0.161-1.526-0.080-2.409z"></path>
</symbol>

<symbol id="icon-Instagram" viewBox="0 0 32 32">
<path fill="#fffefc" style="fill: var(--color1, #fffefc)" d="M31.673 16c0 8.656-7.017 15.673-15.673 15.673s-15.673-7.017-15.673-15.673c0-8.656 7.017-15.673 15.673-15.673s15.673 7.017 15.673 15.673z"></path>
<path fill="#121313" style="fill: var(--color2, #121313)" d="M15.889 23.522c-1.376 0-2.752 0.082-4.047 0-1.862-0.165-2.59-0.824-2.914-2.801-0.405-2.307-0.567-4.531-0.324-6.838 0.081-0.824 0.162-1.73 0.324-2.554 0.243-1.73 0.971-2.472 2.671-2.884 0.729-0.165 1.376-0.247 2.105-0.165 1.538 0.082 3.076 0.082 4.614-0.082 0.729-0.082 1.376 0 2.105 0.082 1.376 0.165 2.348 0.906 2.509 2.307 0.486 3.46 0.89 6.921 0.243 10.381-0.324 1.648-1.052 2.307-2.671 2.636-1.457 0.082-2.995 0-4.614-0.082zM16.213 12.482c-1.862-0.082-3.481 1.318-3.643 3.049-0.162 2.142 1.133 3.543 3.319 3.708 1.7 0.082 3.319-1.401 3.481-3.296 0.162-1.73-1.295-3.378-3.157-3.46zM21.232 11.163c-0.081-0.494-0.324-0.824-0.89-0.824-0.648 0-0.971 0.412-0.971 0.989s0.324 0.989 0.971 0.989c0.648-0.082 0.89-0.494 0.89-1.153z"></path>
</symbol>
<symbol id="icon-Telegram" viewBox="0 0 32 32">
<path fill="#fffefc" style="fill: var(--color1, #fffefc)" d="M31.673 16c0 8.656-7.017 15.673-15.673 15.673s-15.673-7.017-15.673-15.673c0-8.656 7.017-15.673 15.673-15.673s15.673 7.017 15.673 15.673z"></path>
<path fill="#121313" style="fill: var(--color2, #121313)" d="M6.531 16.971c1.807-1.15 3.121-1.971 4.518-2.793 3.286-1.807 6.489-3.614 9.693-5.586 1.232-0.739 1.561-0.575 1.561 0.904-0.082 1.068-0.246 2.054-0.411 3.121-0.493 3.039-1.068 6.079-1.561 9.118-0.164 0.904-0.493 1.15-1.314 0.657-0.411-0.246-0.821-0.329-1.232-0.493-2.136-0.904-2.382-0.904-3.943 0.821-0.329 0.329-0.411 0.821-1.068 0.904-0.246-1.561-0.575-2.957 0.575-4.354 1.15-1.479 2.218-2.875 3.45-4.354 0.329-0.411 0.575-0.821 0.739-1.314-1.889 1.232-3.779 2.546-5.339 4.189-0.575 0.657-1.068 0.739-1.889 0.411-1.068-0.411-2.218-0.739-3.779-1.232z"></path>
</symbol>

<symbol id="icon-donut" viewBox="0 0 32 32">
<path stroke-linejoin="miter" stroke-linecap="butt" stroke-miterlimit="4" stroke-width="0.4" d="M5.242 10.624c-0.991 2.016-2.312 6.52-0.986 9.98 1.616 4.216 5.058 6.814 9.951 7.183s8.383-2.58 9.549-4.403c0.79-1.235 1.839-4.070 2.368-6.613 0.123-1.080 0.227-2.127 0.095-3.519-0.087-0.91-0.118-1.877-1.064-3.852-1.445-2.224-2.623-3.099-4.42-4.131-1.324-0.76-4.196-1.604-6.557-1.151-2.577 0.495-3.343 0.661-5.592 2.357-2.24 1.688-3.079 3.57-3.342 4.147zM5.242 10.624c0.678 0.304 1.783 1.199 0.779 2.347-1.254 1.435-1.538 2.263-0.877 2.734s1.646 0.998 0.974 1.913c-0.672 0.915-1.44 1.265-0.246 2.495s2.93 1.053 3.148 1.151c0.218 0.098 0.953-0.181 0.248 1.587s0.901 1.881 1.652 1.957c0.601 0.061 1.656-0.387 2.109-0.618 0.321-0.262 1.178-0.566 2.043 0.308 1.080 1.092 2.333 0.438 2.746 0.102s0.802-1.204 2.036-0.651c1.235 0.554 1.899-0.538 2.118-1.222s0.332-0.546 0.51-0.553c0.178-0.007 0.625-1.978 1.829-2.133s1.221-0.956 1.244-1.006M13.2 13.497c-0.447 0.842-0.124 1.768 0.093 2.126 0.602 0.992 1.831 2.159 3.55 2.199 1.568 0.037 2.141-0.69 2.401-1.269 0.021-0.047 0.042-0.095 0.064-0.145M13.2 13.497c0.559-1.052 2.401-1.269 2.401-1.269s2.277-0.021 3.574 1.95c0.597 0.907 0.374 1.665 0.132 2.231M13.2 13.497c0.009-0.344 0.081-1.075 0.301-1.255 0.275-0.224 0.792-0.6 0.947-1.139s0.51-0.553 1.091-0.293c0.581 0.26 0.346 0.589 1.001 0.101s1.108-0.719 1.341-0.267l0.128 0.492c0.094 0.245 0.436 0.7 1.057 0.561 0.776-0.173 0.835-0.019 1.017 0.456 0.201 0.524-0.211 0.861 0.353 1.548s0.419 0.622 0.217 0.879c-0.196 0.249-1.054 1.178-1.345 1.829M8.371 8.119l1.429 0.119M7.819 10.129l-0.22 1.464M11.151 12.231l0.482 1.258M14.405 7.697l0.062 1.418M19.344 9.13l-0.696 1.164M18.52 4.939l0.025 1.501M23.755 8.241l-1.551 0.347M23.957 12.848l1.315 0.763M22.365 13.871c-0.052 0.116-0.239 1.051-0.326 1.504M25.411 17.582c-0.026 0.058-0.658 0.429-0.97 0.607M20.048 17.87l1.51 0.329M22.152 20.377c0.006 0.142-0.403 1.093-0.608 1.551M18.195 20.253c0.116 0.052 0.348 0.909 0.45 1.331M13.831 17.341l-0.188 1.392M13.048 22.201l1.525 0.684M7.418 18.027l0.83 1.067M6.64 14.899c0.116 0.052 1.052-0.142 1.506-0.245"></path>
</symbol>
<symbol id="icon-makaroon" viewBox="0 0 32 32">
<path stroke-linejoin="miter" stroke-linecap="butt" stroke-miterlimit="4" stroke-width="0.4" d="M6.721 9.502c0.075 0.444 0.204 0.845 0.34 1.155 0.442 0.755 1.747 2.6 3.437 3.94 2.113 1.676 4.472 2.86 6.193 3.6s6.097 1.583 6.393 1.485c0.225-0.075 2.646 0.311 3.964-0.718M6.721 9.502c-0.231-1.362 0.040-3.121 2.119-3.86 2.756-0.98 6.788 0.125 8.46 0.8 1.852 0.806 5.928 2.803 7.421 4.34 1.866 1.921 3.536 3.99 3.138 6.744-0.095 0.656-0.399 1.117-0.811 1.439M6.721 9.502c-0.247 0.122-0.662 0.357-0.545 0.711s-0.22 0.237-0.394 0.295c-0.148 0.049 0.073 0.468 0.196 0.591 0.491 0.493-0.541 0.098-0.312 0.506s1.636 2.251 3.7 4.025c1.227 0.936 2.499 1.919 3.931 2.711 2.392 1.323 4.939 2.254 6.342 2.568 3.541 0.792 5.016 0.795 5.656 0.746M25.294 21.654c0.64-0.048 0.262-0.376 0.493-0.491 0.172-0.086 0.452 0.079 0.492 0.001s0-0.246 0.001-0.492c0-0.246 0.099-0.197 0.394-0.295s0.099-0.197 0.001-0.492c-0.098-0.295 0.295-0.098 0.492-0.245 0.158-0.118-0.014-0.499-0.119-0.675M25.294 21.654c1.022 0.513 0.424 1.198-0.002 1.476M5.977 12.082c-0.148 0.049-1.181 0.146-1.133 1.031 0.002 0.031 0.007 0.063 0.015 0.098M25.292 23.13c-0.689 0.065-2.214 0.193-2.804 0.192-0.738-0.001-6.147-0.993-9.44-3.015-2.634-1.617-4.603-3.172-5.258-3.747-0.924-0.817-2.742-2.579-2.931-3.35M25.292 23.13c0.115 0.099 0.314 0.305 0.196 0.345s-0.345 0.114-0.443 0.147l0.196 0.345c-0 0.019-0.107 0.057-0.282 0.104M4.45 13.408c-0.197 0.196 0.277 1.329 0.538 1.87 1.717 2.954 3.093 3.891 3.24 4.088s5.356 3.55 8.11 4.44c2.203 0.712 4.951 0.762 6.049 0.698 0.608 0.001 1.978-0.271 2.572-0.432M4.45 13.408c0.197-0.196 0.355-0.213 0.409-0.196M4.45 13.408c-0.213-0.066-0.685 0.387-0.935 0.885-0.493 0.983-0.254 1.642 0.29 3.099 1.47 3.938 8.155 7.047 8.352 7.145 0.72 0.361 2.639 1.157 4.474 1.63 1.925 0.497 3.489 0.644 4.671 0.498s1.725-0.488 2.216-0.734c0.574-0.287 1.552-1.313 1.441-1.861M5.579 15.135l0.314 1.090M6.953 17.055l0.983 0.493M8.399 18.344l0.814 1.076M9.825 18.69l1.010 1.175M11.768 20.949l1.426 0.101M14.325 21.74l1.671 1.085M17.127 23.023l1.504-0.107M19.754 23.673l1.475 0.248M22.683 23.913l1.526-0.289M6.983 11.602l0.617 0.732M7.5 13.268l1.081 0.543M9.809 14.744c0.158 0.121 0.557 0.742 0.737 1.038M11.71 16.65l1.294 0.365M14.498 18.451l1.651 0.143M17.723 19.138c0.236 0.118 0.753 0.542 0.983 0.739M20.378 20.224l1.18 0.1M23.036 20.322c0.157 0.079 0.752 0.592 1.029 0.838M26.084 19.888c-0.259 0.123-0.849 0.547-1.111 0.743"></path>
</symbol>
<symbol id="icon-cupcake" viewBox="0 0 32 32">
<path stroke-linejoin="miter" stroke-linecap="butt" stroke-miterlimit="4" stroke-width="0.4" d="M6.958 19.638c1.063 3.231 3.391 8 3.32 8-0.058 0 2.008 1.757 5.226 1.929 1.687 0.091 3.864 0.109 5.845-1.573l3.5-7.911M6.958 19.638c-0.142-0.996 0.354-2.134 0.62-2.579M6.958 19.638c0.236 0.178 0.868 0.427 1.506 0 0.797-0.534 0.709 0.445 0.974 0.8M24.849 20.082c0.207-0.385 0.425-1.334-0.354-2.046 0.679-0.889 1.311-3.095-1.594-4.802M24.849 20.082c-0.384 0.356-1.205 0.96-1.417 0.534s-0.561-0.237-0.709-0.089c-0.090 0.25-0.323 0.638-0.649 0.647M22.9 13.235c0.059-0.652-0.248-2.188-1.948-3.113 0.089-0.563-0.159-1.957-1.86-3.024M22.9 13.235c-1.638 2.202-4.171 2.027-4.523 2.027s-0.88-0.44-2.113-0.088c-1.232 0.352-1.584 0.44-3.697 0.529-1.69 0.070-2.849-1.615-3.217-2.467M19.092 7.098c0.118-0.623 0.071-1.814-1.063-1.601M19.092 7.098c-0.089 0.19-0.425 0.615-1.063 0.798M18.029 5.497c0.325-0.83 1.754-2.401 4.871-2.046 0.177 0.178 0.602 0.427 0.886 0 0.354-0.534 0.089-0.711-0.177-0.978-0.213-0.213-0.679 0.089-0.886 0.267-1.388 0-4.428 0.48-5.491 2.401M18.029 5.497c-0.63 0.285-0.794-0.119-0.797-0.356M17.232 5.141c-0.443-0.059-1.399-0.071-1.683 0.356M15.549 5.497c-0.118-0.504-0.319-1.565-0.177-1.779 0.177-0.267-1.506 2.935-3.277 3.913-0.443 0.445-0.478 1.37 0.089 2.223M15.549 5.497c-0.143 0.342-0.306 1.137 0.187 1.58M12.184 9.855c-1.151 0.267-3.33 1.316-2.834 3.38M12.184 9.855c0.274 0.569 0.823 1.354 1.88 2.059 0.507 0.338 1.671 0.574 2.905 0.529 1.336-0.049 3.081 0 3.961-2.29M9.35 13.235c-0.827 0.623-2.338 2.259-1.771 3.824M7.578 17.059c0.62 0.889 2.409 2.508 4.605 1.868 0.413-0.237 1.399-0.498 2.037 0.356 0.797 1.067 3.631 0.534 3.985 0.178s0.886-0.623 2.037-0.267c1.151 0.356 3.72-0.445 4.163-1.156M9.438 20.438c0.266 0.356 1.151-0.445 1.24-0.445s0.797 0.8 1.063 1.067M9.438 20.438l2.117 6.431M11.741 21.061c0.266 0.267 0.709-0.356 0.797-0.356s0.709 0.623 0.797 0.712c0.033 0.033 0.103 0.066 0.2 0.072M11.741 21.061l1.134 5.809M13.799 7.774c0.448-0.254 1.188-0.574 1.937-0.696M19.433 8.831c-1.012-0.356-1.021-0.482-1.404-0.934M15.736 7.078c0.722-0.118 1.452-0.053 1.937 0.432 0.153 0.153 0.265 0.279 0.357 0.387M13.535 21.488c0.164 0.009 0.407-0.059 0.685-0.339 0.443-0.445 0.62-0.178 0.709 0 0.071 0.143 0.373 0.518 0.719 0.425M13.535 21.488l0.906 5.998M15.648 21.575c0.083-0.022 0.169-0.072 0.256-0.158 0.443-0.445 0.886-0.534 1.151-0.178 0.159 0.213 0.413 0.394 0.706 0.41M15.648 21.575l0.22 6.063M17.761 21.648c0.196 0.011 0.409-0.053 0.623-0.232 0.531-0.445 0.709-0.534 1.24-0.178 0.171 0.115 0.334 0.155 0.478 0.155M17.761 21.648l-0.308 5.99M20.101 21.394c0.303-0.001 0.525-0.184 0.585-0.244 0.089-0.089 0.443-0.534 1.063-0.089 0.116 0.083 0.225 0.116 0.325 0.114M20.101 21.394l-0.888 6.092M22.074 21.174l-1.364 5.871M9.046 16.23l0.704-0.529M12.538 16.582l0.797 0.476M15.296 18.256l0.968-0.529M17.408 16.582l0.798 0.705M19.433 16.23l1.056-0.264M23.922 16.142l-0.528 1.057M20.686 12.442l0.772 0.792M18.905 13.499l-1.144 0.352M16.088 13.499l-0.968 0.617M12.831 13.235l0.792 0.529M10.278 12.442l1.056-0.176M13.887 10.769l0.792 0.881M14.929 8.214l0.895 0.705M18.377 9.535l-0.968 0.44"></path>
</symbol>

<symbol id="icon-heart" viewBox="0 0 48 48">
<path d="M25.24 41.6202C24.56 41.8602 23.44 41.8602 22.76 41.6202C16.96 39.6402 4 31.3802 4 17.3802C4 11.2002 8.98 6.2002 15.12 6.2002C18.76 6.2002 21.98 7.9602 24 10.6802C26.02 7.9602 29.26 6.2002 32.88 6.2002C39.02 6.2002 44 11.2002 44 17.3802C44 31.3802 31.04 39.6402 25.24 41.6202Z" stroke-width="1.5" stroke-linecap="round" stroke-linejoin="round"/>
</symbol>
<symbol id="icon-profile" viewBox="0 0 48 48">
<path d="M24.2395 25.56C24.0995 25.54 23.9195 25.54 23.7595 25.56C20.2395 25.44 17.4395 22.56 17.4395 19.02C17.4395 15.4 20.3595 12.46 23.9995 12.46C27.6195 12.46 30.5595 15.4 30.5595 19.02C30.5395 22.56 27.7595 25.44 24.2395 25.56Z"  stroke-width="1.5" stroke-linecap="round" stroke-linejoin="round"/>
<path d="M37.4795 38.7601C33.9195 42.0201 29.1995 44.0001 23.9995 44.0001C18.7995 44.0001 14.0795 42.0201 10.5195 38.7601C10.7195 36.8801 11.9195 35.0401 14.0595 33.6001C19.5395 29.9601 28.4995 29.9601 33.9395 33.6001C36.0795 35.0401 37.2795 36.8801 37.4795 38.7601Z"  stroke-width="1.5" stroke-linecap="round" stroke-linejoin="round"/>
<path d="M24 44C35.0457 44 44 35.0457 44 24C44 12.9543 35.0457 4 24 4C12.9543 4 4 12.9543 4 24C4 35.0457 12.9543 44 24 44Z"  stroke-width="1.5" stroke-linecap="round" stroke-linejoin="round"/>
</symbol>

<symbol id="icon-bag" viewBox="0 0 48 48">
<path d="M17.9997 44H29.9997C38.0397 44 39.4797 40.78 39.8997 36.86L41.3997 24.86C41.9397 19.98 40.5397 16 31.9997 16H15.9997C7.45965 16 6.05965 19.98 6.59965 24.86L8.09965 36.86C8.51965 40.78 9.95965 44 17.9997 44Z"  stroke-width="1.5" stroke-miterlimit="10" stroke-linecap="round" stroke-linejoin="round"/>
<path d="M15 15.34V13.4C15 8.90002 18.62 4.48002 23.12 4.06002C28.48 3.54002 33 7.76002 33 13.02V15.78"  stroke-width="1.5" stroke-miterlimit="10" stroke-linecap="round" stroke-linejoin="round"/>
</symbol>
<symbol id="icon-search" viewBox="0 0 48 48">
<path d="M23.394 42.788C34.105 42.788 42.7878 34.105 42.7878 23.394C42.7878 12.683 34.105 4 23.394 4C12.683 4 4 12.683 4 23.394C4 34.105 12.683 42.788 23.394 42.788Z" stroke-width="1.5" stroke-linecap="round" stroke-linejoin="round"/>
<path d="M44.0001 44.0001L37.9395 37.9395"  stroke-width="1.5" stroke-linecap="round" stroke-linejoin="round"/>
</symbol>

<symbol id="icon-burger" viewBox="0 0 32 32">
<path stroke-linejoin="round" stroke-linecap="round" stroke-miterlimit="4" stroke-width="1"  d="M3.333 25.333h25.333"></path>
<path stroke-linejoin="round" stroke-linecap="round" stroke-miterlimit="4" stroke-width="1"  d="M3.333 16h25.333"></path>
<path stroke-linejoin="round" stroke-linecap="round" stroke-miterlimit="4" stroke-width="1"  d="M3.333 6.667h25.333"></path>
</symbol>
<!-- <symbol id="icon-close" viewBox="0 0 32 32">
<path d="M23.734 10.304l-1.504-1.504-5.963 5.962-5.962-5.962-1.504 1.504 5.962 5.962-5.962 5.963 1.504 1.504 5.962-5.963 5.963 5.963 1.504-1.504-5.963-5.963 5.963-5.962z"></path>
</symbol> -->
<symbol id="icon-arrow-left" viewBox="0 0 33 32">
<path stroke-linejoin="round" stroke-linecap="round" stroke-miterlimit="10" stroke-width="1" d="M20.333 26.56l-8.693-8.693c-1.027-1.027-1.027-2.707 0-3.733l8.693-8.693"></path>
</symbol>
<symbol id="icon-arrow-right" viewBox="0 0 33 32">
<path stroke-linejoin="round" stroke-linecap="round" stroke-miterlimit="10" stroke-width="1" d="M12.214 26.56l8.693-8.693c1.027-1.027 1.027-2.707 0-3.733l-8.693-8.693"></path>
</symbol>
<symbol id="icon-close" viewBox="0 0 32 32">
<path d="M26.667 7.303l-1.97-1.97-7.808 7.808-7.808-7.808-1.97 1.97 7.808 7.808-7.808 7.808 1.97 1.97 7.808-7.808 7.808 7.808 1.97-1.97-7.808-7.808 7.808-7.808z"></path>
</symbol>
<symbol id="icon-email" viewBox="0 0 32 32">
<path d="M26.667 5.333h-21.333c-1.467 0-2.652 1.2-2.652 2.667l-0.014 16c0 1.467 1.2 2.667 2.667 2.667h21.333c1.467 0 2.667-1.2 2.667-2.667v-16c0-1.467-1.2-2.667-2.667-2.667zM26.133 11.001l-9.426 5.892c-0.201 0.126-0.446 0.2-0.708 0.2s-0.506-0.075-0.713-0.204l0.006 0.003-9.426-5.892c-0.336-0.201-0.557-0.562-0.557-0.975 0-0.625 0.507-1.132 1.132-1.132 0.233 0 0.449 0.070 0.629 0.19l-0.004-0.003 8.933 5.586 8.933-5.588c0.176-0.118 0.392-0.188 0.624-0.188 0.625 0 1.132 0.507 1.132 1.132 0 0.413-0.221 0.775-0.552 0.972l-0.005 0.003z"></path>
</symbol>
<symbol id="icon-phone" viewBox="0 0 32 32">
<path d="M24.882 19.774l-3.268-0.373c-0.090-0.011-0.194-0.018-0.299-0.018-0.707 0-1.348 0.287-1.811 0.75l-2.368 2.368c-3.669-1.894-6.585-4.81-8.427-8.372l-0.051-0.108 2.382-2.377c0.463-0.463 0.75-1.103 0.75-1.81 0-0.106-0.006-0.21-0.019-0.312l0.001 0.012-0.373-3.243c-0.155-1.287-1.24-2.276-2.557-2.276-0.001 0-0.002 0-0.003 0h-2.226c-1.454 0-2.663 1.209-2.574 2.663 0.683 10.987 9.47 19.76 20.444 20.443 1.452 0.089 2.663-1.12 2.663-2.574v-2.226c0-0.004 0-0.008 0-0.012 0-1.308-0.985-2.386-2.253-2.532l-0.012-0.001z"></path>
</symbol>
<symbol id="icon-person" viewBox="0 0 32 32">
<path d="M16 16c2.946 0 5.333-2.388 5.333-5.333s-2.388-5.333-5.333-5.333v0c-2.946 0-5.333 2.388-5.333 5.333s2.388 5.333 5.333 5.333v0zM16 18.667c-3.561 0-10.667 1.787-10.667 5.333v1.333c0 0.732 0.599 1.333 1.333 1.333h18.667c0.732 0 1.333-0.601 1.333-1.333v-1.333c0-3.547-7.108-5.333-10.667-5.333z"></path>
</symbol>
<symbol id="icon-send" viewBox="0 0 32 32">
<path d="M32 0l-32 18 10.227 3.787 15.773-14.787-11.997 16.187 0.009 0.003-0.012-0.003v8.813l5.735-6.691 7.267 2.691 4.999-28z"></path>
</symbol>
<symbol id="icon-check" viewBox="0 0 34 32">
<path d="M4.267 0h25.6c2.356 0 4.267 1.91 4.267 4.267v23.467c0 2.356-1.91 4.267-4.267 4.267h-25.6c-2.356 0-4.267-1.91-4.267-4.267v-23.467c0-2.356 1.91-4.267 4.267-4.267z"></path>
<path fill="#fff" style="fill: var(--color2, #fff); stroke: var(--color2, #fff)" stroke="#fff" stroke-linejoin="miter" stroke-linecap="butt" stroke-miterlimit="4" stroke-width="0.4267" d="M8.442 16.538l-0.147-0.141-0.147 0.139-2.057 1.95 0.162 0.156 7.605 7.253 0.147-0.141 16.171-15.426-0.162-0.154-2.029-1.935-0.147 0.141-13.98 13.325-5.417-5.167z"></path>
</symbol>
</defs>
</svg>
